<svg width="178" height="126" viewBox="0 0 178 126" fill="none" xmlns="http://www.w3.org/2000/svg">
<path d="M16.275 106.414C17.6517 106.671 18.7833 107.359 19.67 108.479C20.5567 109.599 21 110.882 21 112.329C21 113.636 20.6733 114.791 20.02 115.794C19.39 116.774 18.4683 117.544 17.255 118.104C16.0417 118.664 14.6067 118.944 12.95 118.944H2.415V94.5138H12.495C14.1517 94.5138 15.575 94.7822 16.765 95.3188C17.9783 95.8555 18.8883 96.6022 19.495 97.5588C20.125 98.5155 20.44 99.6005 20.44 100.814C20.44 102.237 20.055 103.427 19.285 104.384C18.5383 105.341 17.535 106.017 16.275 106.414ZM7.315 104.594H11.795C12.9617 104.594 13.86 104.337 14.49 103.824C15.12 103.287 15.435 102.529 15.435 101.549C15.435 100.569 15.12 99.8105 14.49 99.2738C13.86 98.7372 12.9617 98.4688 11.795 98.4688H7.315V104.594ZM12.25 114.954C13.44 114.954 14.3617 114.674 15.015 114.114C15.6917 113.554 16.03 112.761 16.03 111.734C16.03 110.684 15.68 109.867 14.98 109.284C14.28 108.677 13.335 108.374 12.145 108.374H7.315V114.954H12.25ZM39.8852 114.289H30.1552L28.5452 118.944H23.4002L32.1852 94.4788H37.8902L46.6752 118.944H41.4952L39.8852 114.289ZM38.5552 110.369L35.0202 100.149L31.4852 110.369H38.5552ZM70.8539 118.944H65.9539L54.8589 102.179V118.944H49.9589V94.4788H54.8589L65.9539 111.279V94.4788H70.8539V118.944ZM89.4863 118.944L80.5963 108.059V118.944H75.6963V94.5138H80.5963V105.469L89.4863 94.5138H95.4013L85.3213 106.624L95.6813 118.944H89.4863ZM116.719 102.074C116.719 103.381 116.404 104.606 115.774 105.749C115.168 106.892 114.199 107.814 112.869 108.514C111.563 109.214 109.906 109.564 107.899 109.564H103.804V118.944H98.9043V94.5138H107.899C109.789 94.5138 111.399 94.8405 112.729 95.4938C114.059 96.1472 115.051 97.0455 115.704 98.1888C116.381 99.3322 116.719 100.627 116.719 102.074ZM107.689 105.609C109.043 105.609 110.046 105.306 110.699 104.699C111.353 104.069 111.679 103.194 111.679 102.074C111.679 99.6938 110.349 98.5038 107.689 98.5038H103.804V105.609H107.689ZM125.098 94.5138V118.944H120.198V94.5138H125.098ZM128.749 106.694C128.749 104.291 129.286 102.144 130.359 100.254C131.456 98.3405 132.938 96.8588 134.804 95.8088C136.694 94.7355 138.806 94.1988 141.139 94.1988C143.869 94.1988 146.261 94.8988 148.314 96.2988C150.368 97.6988 151.803 99.6355 152.619 102.109H146.984C146.424 100.942 145.631 100.067 144.604 99.4838C143.601 98.9005 142.434 98.6088 141.104 98.6088C139.681 98.6088 138.409 98.9472 137.289 99.6238C136.193 100.277 135.329 101.211 134.699 102.424C134.093 103.637 133.789 105.061 133.789 106.694C133.789 108.304 134.093 109.727 134.699 110.964C135.329 112.177 136.193 113.122 137.289 113.799C138.409 114.452 139.681 114.779 141.104 114.779C142.434 114.779 143.601 114.487 144.604 113.904C145.631 113.297 146.424 112.411 146.984 111.244H152.619C151.803 113.741 150.368 115.689 148.314 117.089C146.284 118.466 143.893 119.154 141.139 119.154C138.806 119.154 136.694 118.629 134.804 117.579C132.938 116.506 131.456 115.024 130.359 113.134C129.286 111.244 128.749 109.097 128.749 106.694ZM170.595 118.944L161.705 108.059V118.944H156.805V94.5138H161.705V105.469L170.595 94.5138H176.51L166.43 106.624L176.79 118.944H170.595Z" fill="white"/>
<path d="M126.381 32.0125C124.661 27.8613 122.123 24.0489 118.849 20.7752C112.472 14.3982 104.046 10.8114 95.0561 10.6309C97.9353 14.6634 99.4922 19.3552 99.7278 24.103C100.745 24.3592 101.739 24.69 102.706 25.0897C105.323 26.1736 107.726 27.7727 109.789 29.8356C113.916 33.9616 116.188 39.4481 116.188 45.2836C116.188 51.1187 113.916 56.6057 109.789 60.7316C105.663 64.859 100.176 67.1307 94.3408 67.1307C88.5053 67.1307 83.0192 64.859 78.8928 60.7316C76.0251 57.8639 74.1225 54.3905 73.1856 50.7194C68.4315 50.4963 63.7306 48.95 59.6895 46.076C59.8891 55.0388 63.4731 63.4328 69.8324 69.7921C76.3789 76.3395 85.0826 79.9441 94.3403 79.9441C103.598 79.9441 112.302 76.3395 118.848 69.7921C125.396 63.2456 129 54.5428 129 45.2841C129.001 40.6555 128.101 36.1643 126.381 32.0125ZM72.8686 41.2961C73.6428 37.0945 75.6507 33.0787 78.8933 29.8356C82.0507 26.6783 86.0047 24.6067 90.3025 23.8072C89.9564 20.2462 88.4215 16.7805 85.6998 14.0587C85.0477 13.4067 84.3516 12.8212 83.6215 12.306C78.4782 13.9707 73.7668 16.8417 69.8328 20.7757C65.8798 24.7288 62.9996 29.4684 61.3378 34.6409C61.853 35.3638 62.4322 36.048 63.0714 36.6886C65.806 39.4213 69.2909 40.9591 72.8686 41.2961Z" fill="url(#paint0_linear_1_4907)"/>
<path d="M99.7275 24.1029C97.9872 23.6634 96.1818 23.4365 94.3405 23.4365C92.9708 23.4365 91.6202 23.5619 90.3018 23.8066C90.7513 28.4093 89.2164 33.1706 85.699 36.688C82.1945 40.1925 77.4548 41.7288 72.8674 41.2955C72.2934 44.4156 72.3987 47.6366 73.1853 50.7184C73.585 50.7375 73.9848 50.7466 74.3846 50.7466C80.8846 50.7466 87.3876 48.2724 92.336 43.324C97.2844 38.3742 99.7586 31.8741 99.7586 25.3736C99.7596 24.9499 99.7495 24.5257 99.7275 24.1029ZM74.3855 9.38025C76.4346 9.38025 78.4832 9.76996 80.4092 10.5503C81.529 11.0037 82.6091 11.5883 83.6217 12.3059C87.0376 11.199 90.6445 10.6236 94.3415 10.6236C94.5799 10.6236 94.8193 10.626 95.0563 10.6312C94.2529 9.50617 93.3471 8.43232 92.3374 7.42262C82.4391 -2.47421 66.3338 -2.47421 56.4356 7.42262C51.6408 12.2174 49 18.5934 49 25.374C49 32.1546 51.6408 38.5298 56.4356 43.3245C57.4596 44.3471 58.5488 45.2644 59.6901 46.0754C59.6839 45.8126 59.681 45.5473 59.681 45.2836C59.681 41.6163 60.246 38.0352 61.338 34.6408C59.4187 31.9526 58.3846 28.743 58.3846 25.374C58.3846 21.0997 60.0492 17.081 63.0716 14.0587C66.1902 10.9396 70.2879 9.38025 74.3855 9.38025Z" fill="url(#paint1_linear_1_4907)"/>
<defs>
<linearGradient id="paint0_linear_1_4907" x1="129" y1="45.2874" x2="59.6895" y2="45.2874" gradientUnits="userSpaceOnUse">
<stop stop-color="#00FFE5"/>
<stop offset="1" stop-color="#0066FF"/>
</linearGradient>
<linearGradient id="paint1_linear_1_4907" x1="99.7586" y1="25.3733" x2="49" y2="25.3733" gradientUnits="userSpaceOnUse">
<stop stop-color="#00FFE5"/>
<stop offset="1" stop-color="#0066FF"/>
</linearGradient>
</defs>
</svg>
