<svg width="178" height="126" viewBox="0 0 178 126" fill="none" xmlns="http://www.w3.org/2000/svg">
<path d="M16.275 106.414C17.6517 106.671 18.7833 107.359 19.67 108.479C20.5567 109.599 21 110.882 21 112.329C21 113.636 20.6733 114.791 20.02 115.794C19.39 116.774 18.4683 117.544 17.255 118.104C16.0417 118.664 14.6067 118.944 12.95 118.944H2.415V94.5138H12.495C14.1517 94.5138 15.575 94.7822 16.765 95.3188C17.9783 95.8555 18.8883 96.6022 19.495 97.5588C20.125 98.5155 20.44 99.6005 20.44 100.814C20.44 102.237 20.055 103.427 19.285 104.384C18.5383 105.341 17.535 106.017 16.275 106.414ZM7.315 104.594H11.795C12.9617 104.594 13.86 104.337 14.49 103.824C15.12 103.287 15.435 102.529 15.435 101.549C15.435 100.569 15.12 99.8105 14.49 99.2738C13.86 98.7372 12.9617 98.4688 11.795 98.4688H7.315V104.594ZM12.25 114.954C13.44 114.954 14.3617 114.674 15.015 114.114C15.6917 113.554 16.03 112.761 16.03 111.734C16.03 110.684 15.68 109.867 14.98 109.284C14.28 108.677 13.335 108.374 12.145 108.374H7.315V114.954H12.25ZM39.8852 114.289H30.1552L28.5452 118.944H23.4002L32.1852 94.4788H37.8902L46.6752 118.944H41.4952L39.8852 114.289ZM38.5552 110.369L35.0202 100.149L31.4852 110.369H38.5552ZM70.8539 118.944H65.9539L54.8589 102.179V118.944H49.9589V94.4788H54.8589L65.9539 111.279V94.4788H70.8539V118.944ZM89.4863 118.944L80.5963 108.059V118.944H75.6963V94.5138H80.5963V105.469L89.4863 94.5138H95.4013L85.3213 106.624L95.6813 118.944H89.4863ZM116.719 102.074C116.719 103.381 116.404 104.606 115.774 105.749C115.168 106.892 114.199 107.814 112.869 108.514C111.563 109.214 109.906 109.564 107.899 109.564H103.804V118.944H98.9043V94.5138H107.899C109.789 94.5138 111.399 94.8405 112.729 95.4938C114.059 96.1472 115.051 97.0455 115.704 98.1888C116.381 99.3322 116.719 100.627 116.719 102.074ZM107.689 105.609C109.043 105.609 110.046 105.306 110.699 104.699C111.353 104.069 111.679 103.194 111.679 102.074C111.679 99.6938 110.349 98.5038 107.689 98.5038H103.804V105.609H107.689ZM125.098 94.5138V118.944H120.198V94.5138H125.098ZM128.749 106.694C128.749 104.291 129.286 102.144 130.359 100.254C131.456 98.3405 132.938 96.8588 134.804 95.8088C136.694 94.7355 138.806 94.1988 141.139 94.1988C143.869 94.1988 146.261 94.8988 148.314 96.2988C150.368 97.6988 151.803 99.6355 152.619 102.109H146.984C146.424 100.942 145.631 100.067 144.604 99.4838C143.601 98.9005 142.434 98.6088 141.104 98.6088C139.681 98.6088 138.409 98.9472 137.289 99.6238C136.193 100.277 135.329 101.211 134.699 102.424C134.093 103.637 133.789 105.061 133.789 106.694C133.789 108.304 134.093 109.727 134.699 110.964C135.329 112.177 136.193 113.122 137.289 113.799C138.409 114.452 139.681 114.779 141.104 114.779C142.434 114.779 143.601 114.487 144.604 113.904C145.631 113.297 146.424 112.411 146.984 111.244H152.619C151.803 113.741 150.368 115.689 148.314 117.089C146.284 118.466 143.893 119.154 141.139 119.154C138.806 119.154 136.694 118.629 134.804 117.579C132.938 116.506 131.456 115.024 130.359 113.134C129.286 111.244 128.749 109.097 128.749 106.694ZM170.595 118.944L161.705 108.059V118.944H156.805V94.5138H161.705V105.469L170.595 94.5138H176.51L166.43 106.624L176.79 118.944H170.595Z" fill="#1E1E2D"/>
<path d="M119.381 32.0125C117.661 27.8613 115.123 24.0489 111.849 20.7752C105.472 14.3982 97.0461 10.8114 88.0561 10.6309C90.9353 14.6634 92.4922 19.3552 92.7278 24.103C93.7451 24.3592 94.7395 24.69 95.7056 25.0897C98.3235 26.1736 100.726 27.7727 102.789 29.8356C106.916 33.9616 109.188 39.4481 109.188 45.2836C109.188 51.1187 106.916 56.6057 102.789 60.7316C98.6629 64.859 93.1764 67.1307 87.3408 67.1307C81.5053 67.1307 76.0192 64.859 71.8928 60.7316C69.0251 57.8639 67.1225 54.3905 66.1856 50.7194C61.4315 50.4963 56.7306 48.95 52.6895 46.076C52.8891 55.0388 56.4731 63.4328 62.8324 69.7921C69.3789 76.3395 78.0826 79.9441 87.3403 79.9441C96.598 79.9441 105.302 76.3395 111.848 69.7921C118.396 63.2456 122 54.5428 122 45.2841C122.001 40.6555 121.101 36.1643 119.381 32.0125ZM65.8686 41.2961C66.6428 37.0945 68.6507 33.0787 71.8933 29.8356C75.0507 26.6783 79.0047 24.6067 83.3025 23.8072C82.9564 20.2462 81.4215 16.7805 78.6998 14.0587C78.0477 13.4067 77.3516 12.8212 76.6215 12.306C71.4782 13.9707 66.7668 16.8417 62.8328 20.7757C58.8798 24.7288 55.9996 29.4684 54.3378 34.6409C54.853 35.3638 55.4322 36.048 56.0714 36.6886C58.806 39.4213 62.2909 40.9591 65.8686 41.2961Z" fill="url(#paint0_linear_1_7077)"/>
<path d="M92.7275 24.1029C90.9872 23.6634 89.1818 23.4365 87.3405 23.4365C85.9708 23.4365 84.6202 23.5619 83.3018 23.8066C83.7513 28.4093 82.2164 33.1706 78.699 36.688C75.1945 40.1925 70.4548 41.7288 65.8674 41.2955C65.2934 44.4156 65.3987 47.6366 66.1853 50.7184C66.585 50.7375 66.9848 50.7466 67.3846 50.7466C73.8846 50.7466 80.3876 48.2724 85.336 43.324C90.2844 38.3742 92.7586 31.8741 92.7586 25.3736C92.7596 24.9499 92.7495 24.5257 92.7275 24.1029ZM67.3855 9.38025C69.4346 9.38025 71.4832 9.76996 73.4092 10.5503C74.529 11.0037 75.6091 11.5883 76.6217 12.3059C80.0376 11.199 83.6445 10.6236 87.3415 10.6236C87.5799 10.6236 87.8193 10.626 88.0563 10.6312C87.2529 9.50617 86.3471 8.43232 85.3374 7.42262C75.4391 -2.47421 59.3338 -2.47421 49.4356 7.42262C44.6408 12.2174 42 18.5934 42 25.374C42 32.1546 44.6408 38.5298 49.4356 43.3245C50.4596 44.3471 51.5488 45.2644 52.6901 46.0754C52.6839 45.8126 52.681 45.5473 52.681 45.2836C52.681 41.6163 53.246 38.0352 54.338 34.6408C52.4187 31.9526 51.3846 28.743 51.3846 25.374C51.3846 21.0997 53.0492 17.081 56.0716 14.0587C59.1902 10.9396 63.2879 9.38025 67.3855 9.38025Z" fill="url(#paint1_linear_1_7077)"/>
<defs>
<linearGradient id="paint0_linear_1_7077" x1="122" y1="45.2874" x2="52.6895" y2="45.2874" gradientUnits="userSpaceOnUse">
<stop stop-color="#00FFE5"/>
<stop offset="1" stop-color="#0066FF"/>
</linearGradient>
<linearGradient id="paint1_linear_1_7077" x1="92.7586" y1="25.3733" x2="42" y2="25.3733" gradientUnits="userSpaceOnUse">
<stop stop-color="#00FFE5"/>
<stop offset="1" stop-color="#0066FF"/>
</linearGradient>
</defs>
</svg>
